<svg xmlns="http://www.w3.org/2000/svg" xmlns:xlink="http://www.w3.org/1999/xlink"  zoomAndPan="magnify" viewBox="90 210 1270 390"  preserveAspectRatio="xMidYMid meet" version="1.0"><defs><clipPath id="4fe63fcac5"><path d="M 102.417969 530.101562 L 149.828125 530.101562 L 149.828125 533.273438 L 102.417969 533.273438 Z M 124.320312 533.273438 L 127.921875 533.273438 L 127.921875 585.59375 L 124.320312 585.59375 Z M 124.320312 533.273438 " clip-rule="nonzero"/></clipPath><clipPath id="35da699cc2"><path d="M 0.417969 0.101562 L 47.828125 0.101562 L 47.828125 3.273438 L 0.417969 3.273438 Z M 22.320312 3.273438 L 25.921875 3.273438 L 25.921875 55.59375 L 22.320312 55.59375 Z M 22.320312 3.273438 " clip-rule="nonzero"/></clipPath><clipPath id="eee504ee11"><rect x="0" width="48" y="0" height="56"/></clipPath><clipPath id="74718a70d4"><path d="M 159.558594 530.101562 L 191.683594 530.101562 L 191.683594 533.273438 L 159.558594 533.273438 Z M 159.558594 533.273438 L 163.160156 533.273438 L 163.160156 556.03125 L 159.558594 556.03125 Z M 159.558594 556.03125 L 186.558594 556.03125 L 186.558594 559.207031 L 159.558594 559.207031 Z M 159.558594 559.207031 L 163.160156 559.207031 L 163.160156 582.421875 L 159.558594 582.421875 Z M 159.558594 582.421875 L 193.269531 582.421875 L 193.269531 585.59375 L 159.558594 585.59375 Z M 159.558594 582.421875 " clip-rule="nonzero"/></clipPath><clipPath id="af3a21104e"><path d="M 0.558594 0.101562 L 32.683594 0.101562 L 32.683594 3.273438 L 0.558594 3.273438 Z M 0.558594 3.273438 L 4.160156 3.273438 L 4.160156 26.03125 L 0.558594 26.03125 Z M 0.558594 26.03125 L 27.558594 26.03125 L 27.558594 29.207031 L 0.558594 29.207031 Z M 0.558594 29.207031 L 4.160156 29.207031 L 4.160156 52.421875 L 0.558594 52.421875 Z M 0.558594 52.421875 L 34.269531 52.421875 L 34.269531 55.59375 L 0.558594 55.59375 Z M 0.558594 52.421875 " clip-rule="nonzero"/></clipPath><clipPath id="e078561beb"><rect x="0" width="35" y="0" height="56"/></clipPath><clipPath id="76c65b3c14"><path d="M 202.875 529.007812 L 254.722656 529.007812 L 254.722656 586.691406 L 202.875 586.691406 Z M 202.875 529.007812 " clip-rule="nonzero"/></clipPath><clipPath id="a33bd4acdd"><path d="M 232.046875 529.152344 C 245.988281 529.152344 253.039062 536.140625 253.039062 536.140625 L 250.871094 538.671875 C 250.871094 538.671875 243.914062 532.417969 232.167969 532.417969 C 217.738281 532.417969 206.757812 543.128906 206.757812 557.464844 C 206.757812 571.898438 217.648438 583.308594 232.414062 583.308594 C 245.011719 583.308594 252.304688 575.769531 252.304688 575.769531 L 254.5625 578.152344 C 254.5625 578.152344 246.660156 586.539062 232.414062 586.539062 C 215.296875 586.539062 202.972656 573.542969 202.972656 557.4375 C 202.972656 541.328125 215.511719 529.152344 232.046875 529.152344 " clip-rule="nonzero"/></clipPath><clipPath id="c87cd72039"><path d="M 0.875 0.0078125 L 52.640625 0.0078125 L 52.640625 57.558594 L 0.875 57.558594 Z M 0.875 0.0078125 " clip-rule="nonzero"/></clipPath><clipPath id="2e15a4830b"><path d="M 30.046875 0.152344 C 43.988281 0.152344 51.039062 7.140625 51.039062 7.140625 L 48.871094 9.671875 C 48.871094 9.671875 41.914062 3.417969 30.167969 3.417969 C 15.738281 3.417969 4.757812 14.128906 4.757812 28.464844 C 4.757812 42.898438 15.648438 54.308594 30.414062 54.308594 C 43.011719 54.308594 50.304688 46.769531 50.304688 46.769531 L 52.5625 49.152344 C 52.5625 49.152344 44.660156 57.539062 30.414062 57.539062 C 13.296875 57.539062 0.972656 44.542969 0.972656 28.4375 C 0.972656 12.328125 13.511719 0.152344 30.046875 0.152344 " clip-rule="nonzero"/></clipPath><clipPath id="41321c8e76"><rect x="0" width="53" y="0" height="58"/></clipPath><clipPath id="6ffa05f267"><path d="M 268.457031 530.039062 L 313.78125 530.039062 L 313.78125 585.664062 L 268.457031 585.664062 Z M 268.457031 530.039062 " clip-rule="nonzero"/></clipPath><clipPath id="8a5431f695"><path d="M 268.472656 530.101562 L 271.832031 530.101562 L 305.296875 573.636719 C 307.21875 576.167969 310.089844 580.621094 310.089844 580.621094 L 310.269531 580.621094 C 310.269531 580.621094 309.84375 576.410156 309.84375 573.636719 L 309.84375 530.101562 L 313.445312 530.101562 L 313.445312 585.59375 L 310.089844 585.59375 L 276.621094 542.089844 C 274.699219 539.558594 271.832031 535.101562 271.832031 535.101562 L 271.648438 535.101562 C 271.648438 535.101562 272.074219 539.3125 272.074219 542.089844 L 272.074219 585.59375 L 268.472656 585.59375 Z M 268.472656 530.101562 " clip-rule="nonzero"/></clipPath><clipPath id="0fbc69e613"><path d="M 0.457031 0.0390625 L 45.679688 0.0390625 L 45.679688 55.601562 L 0.457031 55.601562 Z M 0.457031 0.0390625 " clip-rule="nonzero"/></clipPath><clipPath id="834c075569"><path d="M 0.472656 0.101562 L 3.832031 0.101562 L 37.296875 43.636719 C 39.21875 46.167969 42.089844 50.621094 42.089844 50.621094 L 42.269531 50.621094 C 42.269531 50.621094 41.84375 46.410156 41.84375 43.636719 L 41.84375 0.101562 L 45.445312 0.101562 L 45.445312 55.59375 L 42.089844 55.59375 L 8.621094 12.089844 C 6.699219 9.558594 3.832031 5.101562 3.832031 5.101562 L 3.648438 5.101562 C 3.648438 5.101562 4.074219 9.3125 4.074219 12.089844 L 4.074219 55.59375 L 0.472656 55.59375 Z M 0.472656 0.101562 " clip-rule="nonzero"/></clipPath><clipPath id="6a3cfb4210"><rect x="0" width="46" y="0" height="56"/></clipPath><clipPath id="190bffcbf3"><path d="M 327.171875 529.007812 L 386.917969 529.007812 L 386.917969 586.691406 L 327.171875 586.691406 Z M 327.171875 529.007812 " clip-rule="nonzero"/></clipPath><clipPath id="de15f9e3c0"><path d="M 357.164062 583.308594 C 371.5 583.308594 383.09375 572.050781 383.09375 557.464844 C 383.09375 543.28125 371.53125 532.417969 357.164062 532.417969 C 342.792969 532.417969 331.230469 543.28125 331.230469 557.464844 C 331.230469 572.050781 342.792969 583.308594 357.164062 583.308594 M 357.164062 529.152344 C 373.515625 529.152344 386.878906 541.511719 386.878906 557.464844 C 386.878906 573.789062 373.546875 586.570312 357.164062 586.570312 C 340.78125 586.570312 327.449219 573.820312 327.449219 557.464844 C 327.449219 541.511719 340.808594 529.152344 357.164062 529.152344 " clip-rule="nonzero"/></clipPath><clipPath id="d60d5b3b29"><path d="M 0.359375 0.0078125 L 59.878906 0.0078125 L 59.878906 57.691406 L 0.359375 57.691406 Z M 0.359375 0.0078125 " clip-rule="nonzero"/></clipPath><clipPath id="d54b381cd3"><path d="M 30.164062 54.308594 C 44.5 54.308594 56.09375 43.050781 56.09375 28.464844 C 56.09375 14.28125 44.53125 3.417969 30.164062 3.417969 C 15.792969 3.417969 4.230469 14.28125 4.230469 28.464844 C 4.230469 43.050781 15.792969 54.308594 30.164062 54.308594 M 30.164062 0.152344 C 46.515625 0.152344 59.878906 12.511719 59.878906 28.464844 C 59.878906 44.789062 46.546875 57.570312 30.164062 57.570312 C 13.78125 57.570312 0.449219 44.820312 0.449219 28.464844 C 0.449219 12.511719 13.808594 0.152344 30.164062 0.152344 " clip-rule="nonzero"/></clipPath><clipPath id="69afb35136"><rect x="0" width="60" y="0" height="58"/></clipPath><clipPath id="cdea5bd5c1"><path d="M 400.882812 530.101562 L 404.480469 530.101562 L 404.480469 582.421875 L 400.882812 582.421875 Z M 400.882812 582.421875 L 432.488281 582.421875 L 432.488281 585.59375 L 400.882812 585.59375 Z M 400.882812 582.421875 " clip-rule="nonzero"/></clipPath><clipPath id="1b5ffaa0c8"><path d="M 0.882812 0.101562 L 4.480469 0.101562 L 4.480469 52.421875 L 0.882812 52.421875 Z M 0.882812 52.421875 L 32.488281 52.421875 L 32.488281 55.59375 L 0.882812 55.59375 Z M 0.882812 52.421875 " clip-rule="nonzero"/></clipPath><clipPath id="97f01e3b8f"><rect x="0" width="33" y="0" height="56"/></clipPath><clipPath id="19c70bceb8"><path d="M 436.019531 529.007812 L 495.765625 529.007812 L 495.765625 586.691406 L 436.019531 586.691406 Z M 436.019531 529.007812 " clip-rule="nonzero"/></clipPath><clipPath id="435fdf535a"><path d="M 465.988281 583.308594 C 480.324219 583.308594 491.917969 572.050781 491.917969 557.464844 C 491.917969 543.28125 480.355469 532.417969 465.988281 532.417969 C 451.617188 532.417969 440.054688 543.28125 440.054688 557.464844 C 440.054688 572.050781 451.617188 583.308594 465.988281 583.308594 M 465.988281 529.152344 C 482.339844 529.152344 495.703125 541.511719 495.703125 557.464844 C 495.703125 573.789062 482.371094 586.570312 465.988281 586.570312 C 449.601562 586.570312 436.269531 573.820312 436.269531 557.464844 C 436.269531 541.539062 449.601562 529.152344 465.988281 529.152344 " clip-rule="nonzero"/></clipPath><clipPath id="3acc444582"><path d="M 0.078125 0.0078125 L 59.765625 0.0078125 L 59.765625 57.691406 L 0.078125 57.691406 Z M 0.078125 0.0078125 " clip-rule="nonzero"/></clipPath><clipPath id="269b8d3efc"><path d="M 29.988281 54.308594 C 44.324219 54.308594 55.917969 43.050781 55.917969 28.464844 C 55.917969 14.28125 44.355469 3.417969 29.988281 3.417969 C 15.617188 3.417969 4.054688 14.28125 4.054688 28.464844 C 4.054688 43.050781 15.617188 54.308594 29.988281 54.308594 M 29.988281 0.152344 C 46.339844 0.152344 59.703125 12.511719 59.703125 28.464844 C 59.703125 44.789062 46.371094 57.570312 29.988281 57.570312 C 13.601562 57.570312 0.269531 44.820312 0.269531 28.464844 C 0.269531 12.539062 13.601562 0.152344 29.988281 0.152344 " clip-rule="nonzero"/></clipPath><clipPath id="d5ca2f2af1"><rect x="0" width="60" y="0" height="58"/></clipPath><clipPath id="ae5a3aa0e9"><path d="M 505.722656 529.007812 L 558.601562 529.007812 L 558.601562 586.691406 L 505.722656 586.691406 Z M 505.722656 529.007812 " clip-rule="nonzero"/></clipPath><clipPath id="1bb45b3157"><path d="M 535.058594 529.152344 C 548.328125 529.152344 555.527344 535.410156 555.527344 535.410156 L 553.332031 538.03125 C 553.332031 538.03125 546.285156 532.386719 535.058594 532.386719 C 520.292969 532.386719 509.550781 543.492188 509.550781 557.832031 C 509.550781 572.261719 520.046875 583.277344 534.539062 583.277344 C 547.140625 583.277344 554.675781 574.152344 554.675781 574.152344 L 554.675781 563.476562 L 544.179688 563.476562 L 544.179688 560.304688 L 558.273438 560.304688 L 558.273438 585.59375 L 554.675781 585.59375 L 554.675781 580.773438 C 554.675781 579.585938 554.765625 578.394531 554.765625 578.394531 L 554.613281 578.394531 C 554.613281 578.394531 547.566406 586.570312 534.570312 586.570312 C 518.21875 586.570312 505.800781 573.972656 505.800781 557.863281 C 505.800781 541.847656 518.460938 529.152344 535.089844 529.152344 " clip-rule="nonzero"/></clipPath><clipPath id="4975e2e95e"><path d="M 0.722656 0.0078125 L 53.480469 0.0078125 L 53.480469 57.691406 L 0.722656 57.691406 Z M 0.722656 0.0078125 " clip-rule="nonzero"/></clipPath><clipPath id="94a145307b"><path d="M 30.058594 0.152344 C 43.328125 0.152344 50.527344 6.410156 50.527344 6.410156 L 48.332031 9.03125 C 48.332031 9.03125 41.285156 3.386719 30.058594 3.386719 C 15.292969 3.386719 4.550781 14.492188 4.550781 28.832031 C 4.550781 43.261719 15.046875 54.277344 29.539062 54.277344 C 42.140625 54.277344 49.675781 45.152344 49.675781 45.152344 L 49.675781 34.476562 L 39.179688 34.476562 L 39.179688 31.304688 L 53.273438 31.304688 L 53.273438 56.59375 L 49.675781 56.59375 L 49.675781 51.773438 C 49.675781 50.585938 49.765625 49.394531 49.765625 49.394531 L 49.613281 49.394531 C 49.613281 49.394531 42.566406 57.570312 29.570312 57.570312 C 13.21875 57.570312 0.800781 44.972656 0.800781 28.863281 C 0.800781 12.847656 13.460938 0.152344 30.089844 0.152344 " clip-rule="nonzero"/></clipPath><clipPath id="9531f3e5f7"><rect x="0" width="54" y="0" height="58"/></clipPath><clipPath id="d1d122e45f"><path d="M 573.222656 530.101562 L 576.824219 530.101562 L 576.824219 585.59375 L 573.222656 585.59375 Z M 573.222656 530.101562 " clip-rule="nonzero"/></clipPath><clipPath id="623b1449ce"><path d="M 0.222656 0.101562 L 3.824219 0.101562 L 3.824219 55.59375 L 0.222656 55.59375 Z M 0.222656 0.101562 " clip-rule="nonzero"/></clipPath><clipPath id="dfe2a21627"><rect x="0" width="4" y="0" height="56"/></clipPath><clipPath id="8411976104"><path d="M 587.101562 530.039062 L 635.515625 530.039062 L 635.515625 585.664062 L 587.101562 585.664062 Z M 587.101562 530.039062 " clip-rule="nonzero"/></clipPath><clipPath id="e6ad229a1b"><path d="M 611.238281 534.066406 C 611.238281 534.066406 609.988281 538.335938 609.070312 540.71875 L 600.101562 563.230469 L 622.496094 563.230469 L 613.585938 540.71875 C 612.671875 538.335938 611.390625 534.066406 611.390625 534.066406 Z M 623.746094 566.40625 L 598.820312 566.40625 L 591.285156 585.59375 L 587.441406 585.59375 L 609.4375 530.101562 L 613.28125 530.101562 L 635.277344 585.59375 L 631.433594 585.59375 Z M 623.746094 566.40625 " clip-rule="nonzero"/></clipPath><clipPath id="db743b525b"><path d="M 0.28125 0.0390625 L 48.28125 0.0390625 L 48.28125 55.601562 L 0.28125 55.601562 Z M 0.28125 0.0390625 " clip-rule="nonzero"/></clipPath><clipPath id="0863baf27e"><path d="M 24.238281 4.066406 C 24.238281 4.066406 22.988281 8.335938 22.070312 10.71875 L 13.101562 33.230469 L 35.496094 33.230469 L 26.585938 10.71875 C 25.671875 8.335938 24.390625 4.066406 24.390625 4.066406 Z M 36.746094 36.40625 L 11.820312 36.40625 L 4.285156 55.59375 L 0.441406 55.59375 L 22.4375 0.101562 L 26.28125 0.101562 L 48.277344 55.59375 L 44.433594 55.59375 Z M 36.746094 36.40625 " clip-rule="nonzero"/></clipPath><clipPath id="6dddb19d2e"><rect x="0" width="49" y="0" height="56"/></clipPath><clipPath id="0788d34f80"><path d="M 661.265625 530.039062 L 709.679688 530.039062 L 709.679688 585.664062 L 661.265625 585.664062 Z M 661.265625 530.039062 " clip-rule="nonzero"/></clipPath><clipPath id="9fa34adb51"><path d="M 685.3125 534.066406 C 685.3125 534.066406 684.0625 538.335938 683.144531 540.71875 L 674.175781 563.230469 L 696.570312 563.230469 L 687.691406 540.71875 C 686.777344 538.335938 685.496094 534.066406 685.496094 534.066406 Z M 697.820312 566.40625 L 672.894531 566.40625 L 665.359375 585.59375 L 661.515625 585.59375 L 683.511719 530.101562 L 687.355469 530.101562 L 709.351562 585.59375 L 705.476562 585.59375 Z M 697.820312 566.40625 " clip-rule="nonzero"/></clipPath><clipPath id="a167efb02d"><path d="M 0.441406 0.0390625 L 48.441406 0.0390625 L 48.441406 55.601562 L 0.441406 55.601562 Z M 0.441406 0.0390625 " clip-rule="nonzero"/></clipPath><clipPath id="cb17b3be1f"><path d="M 24.3125 4.066406 C 24.3125 4.066406 23.0625 8.335938 22.144531 10.71875 L 13.175781 33.230469 L 35.570312 33.230469 L 26.691406 10.71875 C 25.777344 8.335938 24.496094 4.066406 24.496094 4.066406 Z M 36.820312 36.40625 L 11.894531 36.40625 L 4.359375 55.59375 L 0.515625 55.59375 L 22.511719 0.101562 L 26.355469 0.101562 L 48.351562 55.59375 L 44.476562 55.59375 Z M 36.820312 36.40625 " clip-rule="nonzero"/></clipPath><clipPath id="2926c9f8c3"><rect x="0" width="49" y="0" height="56"/></clipPath><clipPath id="db1ae24d2a"><path d="M 743.132812 530.101562 L 772.753906 530.101562 L 772.753906 533.273438 L 743.132812 533.273438 Z M 743.132812 533.273438 L 746.730469 533.273438 L 746.730469 556.429688 L 743.132812 556.429688 Z M 743.132812 556.429688 L 769.214844 556.429688 L 769.214844 559.601562 L 743.132812 559.601562 Z M 743.132812 559.601562 L 746.730469 559.601562 L 746.730469 585.59375 L 743.132812 585.59375 Z M 743.132812 559.601562 " clip-rule="nonzero"/></clipPath><clipPath id="6e27878f61"><path d="M 0.132812 0.101562 L 29.753906 0.101562 L 29.753906 3.273438 L 0.132812 3.273438 Z M 0.132812 3.273438 L 3.730469 3.273438 L 3.730469 26.429688 L 0.132812 26.429688 Z M 0.132812 26.429688 L 26.214844 26.429688 L 26.214844 29.601562 L 0.132812 29.601562 Z M 0.132812 29.601562 L 3.730469 29.601562 L 3.730469 55.59375 L 0.132812 55.59375 Z M 0.132812 29.601562 " clip-rule="nonzero"/></clipPath><clipPath id="868908bf22"><rect x="0" width="30" y="0" height="56"/></clipPath><clipPath id="df83674f9a"><path d="M 775.605469 530.039062 L 823.675781 530.039062 L 823.675781 585.664062 L 775.605469 585.664062 Z M 775.605469 530.039062 " clip-rule="nonzero"/></clipPath><clipPath id="ff2004d8f5"><path d="M 799.449219 534.066406 C 799.449219 534.066406 798.199219 538.335938 797.285156 540.71875 L 788.285156 563.230469 L 810.675781 563.230469 L 801.800781 540.71875 C 800.882812 538.335938 799.601562 534.066406 799.601562 534.066406 Z M 811.957031 566.40625 L 787.035156 566.40625 L 779.46875 585.59375 L 775.621094 585.59375 L 797.589844 530.101562 L 801.464844 530.101562 L 823.429688 585.59375 L 819.585938 585.59375 Z M 811.957031 566.40625 " clip-rule="nonzero"/></clipPath><clipPath id="ff8c6a03ff"><path d="M 0.605469 0.0390625 L 48.441406 0.0390625 L 48.441406 55.601562 L 0.605469 55.601562 Z M 0.605469 0.0390625 " clip-rule="nonzero"/></clipPath><clipPath id="23c000a8a5"><path d="M 24.449219 4.066406 C 24.449219 4.066406 23.199219 8.335938 22.285156 10.71875 L 13.285156 33.230469 L 35.675781 33.230469 L 26.800781 10.71875 C 25.882812 8.335938 24.601562 4.066406 24.601562 4.066406 Z M 36.957031 36.40625 L 12.035156 36.40625 L 4.46875 55.59375 L 0.621094 55.59375 L 22.589844 0.101562 L 26.464844 0.101562 L 48.429688 55.59375 L 44.585938 55.59375 Z M 36.957031 36.40625 " clip-rule="nonzero"/></clipPath><clipPath id="5fddad0d2e"><rect x="0" width="49" y="0" height="56"/></clipPath><clipPath id="244524db87"><path d="M 823.675781 530.039062 L 871.746094 530.039062 L 871.746094 585.664062 L 823.675781 585.664062 Z M 823.675781 530.039062 " clip-rule="nonzero"/></clipPath><clipPath id="5ba7a98d37"><path d="M 823.765625 530.101562 L 827.640625 530.101562 L 845.335938 574.976562 C 846.339844 577.601562 847.59375 581.628906 847.59375 581.628906 L 847.777344 581.628906 C 847.777344 581.628906 849.027344 577.570312 850.035156 574.976562 L 867.820312 530.101562 L 871.695312 530.101562 L 849.699219 585.59375 L 845.761719 585.59375 Z M 823.765625 530.101562 " clip-rule="nonzero"/></clipPath><clipPath id="418b460541"><path d="M 0.679688 0.0390625 L 48.746094 0.0390625 L 48.746094 55.601562 L 0.679688 55.601562 Z M 0.679688 0.0390625 " clip-rule="nonzero"/></clipPath><clipPath id="dd2af62587"><path d="M 0.765625 0.101562 L 4.640625 0.101562 L 22.335938 44.976562 C 23.339844 47.601562 24.59375 51.628906 24.59375 51.628906 L 24.777344 51.628906 C 24.777344 51.628906 26.027344 47.570312 27.035156 44.976562 L 44.820312 0.101562 L 48.695312 0.101562 L 26.699219 55.59375 L 22.761719 55.59375 Z M 0.765625 0.101562 " clip-rule="nonzero"/></clipPath><clipPath id="10f86d381c"><rect x="0" width="49" y="0" height="56"/></clipPath><clipPath id="d214090aa2"><path d="M 877.582031 529.007812 L 937.328125 529.007812 L 937.328125 586.691406 L 877.582031 586.691406 Z M 877.582031 529.007812 " clip-rule="nonzero"/></clipPath><clipPath id="2a628dda18"><path d="M 907.417969 583.308594 C 921.757812 583.308594 933.351562 572.050781 933.351562 557.464844 C 933.351562 543.28125 921.789062 532.417969 907.417969 532.417969 C 893.050781 532.417969 881.488281 543.28125 881.488281 557.464844 C 881.488281 572.050781 893.050781 583.308594 907.417969 583.308594 M 907.417969 529.152344 C 923.773438 529.152344 937.136719 541.511719 937.136719 557.464844 C 937.136719 573.789062 923.800781 586.570312 907.417969 586.570312 C 891.035156 586.570312 877.703125 573.820312 877.703125 557.464844 C 877.734375 541.511719 891.066406 529.152344 907.417969 529.152344 " clip-rule="nonzero"/></clipPath><clipPath id="b6312f95d0"><path d="M 0.679688 0.0078125 L 60.199219 0.0078125 L 60.199219 57.691406 L 0.679688 57.691406 Z M 0.679688 0.0078125 " clip-rule="nonzero"/></clipPath><clipPath id="801a9ccc62"><path d="M 30.417969 54.308594 C 44.757812 54.308594 56.351562 43.050781 56.351562 28.464844 C 56.351562 14.28125 44.789062 3.417969 30.417969 3.417969 C 16.050781 3.417969 4.488281 14.28125 4.488281 28.464844 C 4.488281 43.050781 16.050781 54.308594 30.417969 54.308594 M 30.417969 0.152344 C 46.773438 0.152344 60.136719 12.511719 60.136719 28.464844 C 60.136719 44.789062 46.800781 57.570312 30.417969 57.570312 C 14.035156 57.570312 0.703125 44.820312 0.703125 28.464844 C 0.734375 12.511719 14.066406 0.152344 30.417969 0.152344 " clip-rule="nonzero"/></clipPath><clipPath id="dee73f6d45"><rect x="0" width="61" y="0" height="58"/></clipPath><clipPath id="1d73d8afaf"><path d="M 951.0625 530.039062 L 989.863281 530.039062 L 989.863281 585.664062 L 951.0625 585.664062 Z M 951.0625 530.039062 " clip-rule="nonzero"/></clipPath><clipPath id="86edbe2ff2"><path d="M 970.695312 557.863281 C 978.414062 557.863281 983.261719 552.613281 983.261719 545.109375 C 983.261719 540.199219 980.671875 536.230469 976.367188 534.402344 C 974.691406 533.699219 972.859375 533.304688 968.132812 533.304688 L 954.707031 533.304688 L 954.707031 557.894531 Z M 951.136719 530.101562 L 968.34375 530.101562 C 973.804688 530.101562 976.582031 530.648438 978.929688 531.777344 C 983.78125 534.066406 987.078125 538.765625 987.078125 545.109375 C 987.078125 553.042969 982.195312 558.992188 975.332031 560.394531 L 975.332031 560.546875 L 975.910156 561.1875 L 989.851562 585.59375 L 985.582031 585.59375 L 971.640625 561.035156 L 954.738281 561.035156 L 954.738281 585.59375 L 951.136719 585.59375 Z M 951.136719 530.101562 " clip-rule="nonzero"/></clipPath><clipPath id="9107e70da8"><path d="M 0.121094 0.0390625 L 38.863281 0.0390625 L 38.863281 55.601562 L 0.121094 55.601562 Z M 0.121094 0.0390625 " clip-rule="nonzero"/></clipPath><clipPath id="11a2a27fce"><path d="M 19.695312 27.863281 C 27.414062 27.863281 32.261719 22.613281 32.261719 15.109375 C 32.261719 10.199219 29.671875 6.230469 25.367188 4.402344 C 23.691406 3.699219 21.859375 3.304688 17.132812 3.304688 L 3.707031 3.304688 L 3.707031 27.894531 Z M 0.136719 0.101562 L 17.34375 0.101562 C 22.804688 0.101562 25.582031 0.648438 27.929688 1.777344 C 32.78125 4.066406 36.078125 8.765625 36.078125 15.109375 C 36.078125 23.042969 31.195312 28.992188 24.332031 30.394531 L 24.332031 30.546875 L 24.910156 31.1875 L 38.851562 55.59375 L 34.582031 55.59375 L 20.640625 31.035156 L 3.738281 31.035156 L 3.738281 55.59375 L 0.136719 55.59375 Z M 0.136719 0.101562 " clip-rule="nonzero"/></clipPath><clipPath id="fb94c19526"><rect x="0" width="39" y="0" height="56"/></clipPath><clipPath id="fe9b7b6034"><path d="M 101.714844 222.890625 L 524.757812 222.890625 L 524.757812 469.757812 L 101.714844 469.757812 Z M 101.714844 222.890625 " clip-rule="nonzero"/></clipPath><clipPath id="b23ad0f068"><path d="M 524.347656 222.917969 C 368.507812 231.980469 269.875 273.105469 207.453125 319.234375 C 167.152344 329.148438 141.160156 337.9375 141.160156 337.9375 L 115.105469 370 C 131.304688 363.351562 149.640625 357.492188 169.105469 352.304688 C 110.101562 412.011719 101.742188 469.550781 101.742188 469.550781 L 125.601562 469.550781 L 127.523438 461.863281 L 127.460938 461.863281 C 127.460938 461.863281 127.980469 459.175781 129.324219 454.570312 L 129.382812 454.265625 L 131.488281 447.796875 C 138.871094 426.714844 158.640625 384.917969 207.273438 343.304688 C 221.03125 331.53125 237.140625 319.753906 255.933594 308.464844 C 292.695312 286.378906 339.738281 266.179688 400.023438 251.414062 C 400.023438 251.414062 377.234375 261.757812 355.9375 294.066406 C 350.539062 302.273438 345.230469 311.941406 340.410156 323.199219 C 326.863281 354.839844 317.253906 399.226562 320.457031 460.703125 L 320.976562 469.519531 L 343.554688 469.519531 C 336.65625 404.230469 346.847656 356.148438 365.640625 320.761719 C 406.460938 317.070312 434.4375 315.910156 434.4375 315.910156 L 446.703125 299.191406 L 446.792969 299.191406 L 453.503906 289.945312 L 384.648438 292.234375 C 428.824219 238.507812 494.996094 225.878906 524.347656 222.917969 " clip-rule="nonzero"/></clipPath><clipPath id="cd2d2e9991"><path d="M 0.714844 0.890625 L 423.398438 0.890625 L 423.398438 247.679688 L 0.714844 247.679688 Z M 0.714844 0.890625 " clip-rule="nonzero"/></clipPath><clipPath id="926362cc22"><path d="M 423.347656 0.917969 C 267.507812 9.980469 168.875 51.105469 106.453125 97.234375 C 66.152344 107.148438 40.160156 115.9375 40.160156 115.9375 L 14.105469 148 C 30.304688 141.351562 48.640625 135.492188 68.105469 130.304688 C 9.101562 190.011719 0.742188 247.550781 0.742188 247.550781 L 24.601562 247.550781 L 26.523438 239.863281 L 26.460938 239.863281 C 26.460938 239.863281 26.980469 237.175781 28.324219 232.570312 L 28.382812 232.265625 L 30.488281 225.796875 C 37.871094 204.714844 57.640625 162.917969 106.273438 121.304688 C 120.03125 109.53125 136.140625 97.753906 154.933594 86.464844 C 191.695312 64.378906 238.738281 44.179688 299.023438 29.414062 C 299.023438 29.414062 276.234375 39.757812 254.9375 72.066406 C 249.539062 80.273438 244.230469 89.941406 239.410156 101.199219 C 225.863281 132.839844 216.253906 177.226562 219.457031 238.703125 L 219.976562 247.519531 L 242.554688 247.519531 C 235.65625 182.230469 245.847656 134.148438 264.640625 98.761719 C 305.460938 95.070312 333.4375 93.910156 333.4375 93.910156 L 345.703125 77.191406 L 345.792969 77.191406 L 352.503906 67.945312 L 283.648438 70.234375 C 327.824219 16.507812 393.996094 3.878906 423.347656 0.917969 " clip-rule="nonzero"/></clipPath><clipPath id="a3f836268a"><rect x="0" width="424" y="0" height="248"/></clipPath><clipPath id="9f02f8605f"><path d="M 141 261 L 379 261 L 379 469.757812 L 141 469.757812 Z M 141 261 " clip-rule="nonzero"/></clipPath><clipPath id="51e76f57f7"><path d="M 332.691406 294.554688 L 328.664062 289.214844 C 334.765625 284.609375 341.113281 280.121094 347.488281 275.851562 L 351.210938 281.402344 C 344.925781 285.613281 338.671875 290.039062 332.691406 294.554688 M 298.09375 323.902344 L 293.457031 319.082031 C 298.949219 313.835938 304.714844 308.617188 310.632812 303.613281 L 314.964844 308.710938 C 309.140625 313.621094 303.464844 318.746094 298.09375 323.902344 M 267.648438 357.429688 L 262.398438 353.3125 C 267.039062 347.394531 272.070312 341.445312 277.347656 335.617188 L 282.292969 340.101562 C 277.105469 345.777344 272.195312 351.605469 267.679688 357.402344 M 242.964844 395.199219 L 237.078125 392.058594 C 240.648438 385.347656 244.613281 378.632812 248.914062 372.105469 L 254.5 375.765625 C 250.320312 382.144531 246.445312 388.671875 242.964844 395.199219 M 226.09375 436.9375 L 219.65625 435.136719 C 221.703125 427.8125 224.234375 420.429688 227.195312 413.140625 L 233.386719 415.671875 C 230.519531 422.71875 228.046875 429.890625 226.09375 436.9375 M 367.347656 264.042969 C 327.933594 275.425781 194 323.476562 143.9375 461.863281 L 143.90625 461.863281 C 142.410156 465.796875 141.160156 469.09375 141.160156 469.214844 L 141.191406 469.457031 L 141.160156 469.519531 L 141.191406 469.550781 L 213.097656 469.550781 L 213.25 468.480469 L 213.34375 467.902344 L 213.554688 466.253906 C 213.953125 463.019531 214.226562 460.457031 214.625 457.925781 L 221.214844 458.964844 C 220.664062 462.441406 220.207031 465.949219 219.839844 469.519531 L 302.152344 469.519531 C 302.152344 469.519531 302.03125 467.261719 302 463.234375 L 302.03125 461.863281 L 302 461.863281 C 301.9375 433 306.515625 328.996094 370.066406 268.773438 L 378.453125 261.117188 L 374.367188 262 " clip-rule="nonzero"/></clipPath><clipPath id="37ee16f645"><path d="M 0.121094 0 L 237.480469 0 L 237.480469 208.679688 L 0.121094 208.679688 Z M 0.121094 0 " clip-rule="nonzero"/></clipPath><clipPath id="b8e446d557"><path d="M 191.691406 33.554688 L 187.664062 28.214844 C 193.765625 23.609375 200.113281 19.121094 206.488281 14.851562 L 210.210938 20.402344 C 203.925781 24.613281 197.671875 29.039062 191.691406 33.554688 M 157.09375 62.902344 L 152.457031 58.082031 C 157.949219 52.835938 163.714844 47.617188 169.632812 42.613281 L 173.964844 47.710938 C 168.140625 52.621094 162.464844 57.746094 157.09375 62.902344 M 126.648438 96.429688 L 121.398438 92.3125 C 126.039062 86.394531 131.070312 80.445312 136.347656 74.617188 L 141.292969 79.101562 C 136.105469 84.777344 131.195312 90.605469 126.679688 96.402344 M 101.964844 134.199219 L 96.078125 131.058594 C 99.648438 124.347656 103.613281 117.632812 107.914062 111.105469 L 113.5 114.765625 C 109.320312 121.144531 105.445312 127.671875 101.964844 134.199219 M 85.09375 175.9375 L 78.65625 174.136719 C 80.703125 166.8125 83.234375 159.429688 86.195312 152.140625 L 92.386719 154.671875 C 89.519531 161.71875 87.046875 168.890625 85.09375 175.9375 M 226.347656 3.042969 C 186.933594 14.425781 53 62.476562 2.9375 200.863281 L 2.90625 200.863281 C 1.410156 204.796875 0.160156 208.09375 0.160156 208.214844 L 0.191406 208.457031 L 0.160156 208.519531 L 0.191406 208.550781 L 72.097656 208.550781 L 72.25 207.480469 L 72.34375 206.902344 L 72.554688 205.253906 C 72.953125 202.019531 73.226562 199.457031 73.625 196.925781 L 80.214844 197.964844 C 79.664062 201.441406 79.207031 204.949219 78.839844 208.519531 L 161.152344 208.519531 C 161.152344 208.519531 161.03125 206.261719 161 202.234375 L 161.03125 200.863281 L 161 200.863281 C 160.9375 172 165.515625 67.996094 229.066406 7.773438 L 237.453125 0.117188 L 233.367188 1 " clip-rule="nonzero"/></clipPath><clipPath id="fa1b054cf4"><rect x="0" width="238" y="0" height="209"/></clipPath><clipPath id="f5a1368a65"><path d="M 386 362.09375 L 476.90625 362.09375 L 476.90625 469 L 386 469 Z M 386 362.09375 " clip-rule="nonzero"/></clipPath><clipPath id="741e53bee1"><path d="M 418.878906 385.835938 L 418.878906 409.171875 L 469.675781 409.171875 L 469.675781 432.359375 L 418.878906 432.359375 L 418.878906 468.695312 L 386.324219 468.695312 L 386.324219 362.679688 L 476.539062 362.679688 L 476.539062 385.863281 Z M 418.878906 385.835938 " clip-rule="nonzero"/></clipPath><clipPath id="3f129618e2"><path d="M 0.160156 0.640625 L 90.640625 0.640625 L 90.640625 106.71875 L 0.160156 106.71875 Z M 0.160156 0.640625 " clip-rule="nonzero"/></clipPath><clipPath id="e9fa48a771"><path d="M 32.878906 23.835938 L 32.878906 47.171875 L 83.675781 47.171875 L 83.675781 70.359375 L 32.878906 70.359375 L 32.878906 106.695312 L 0.324219 106.695312 L 0.324219 0.679688 L 90.539062 0.679688 L 90.539062 23.863281 Z M 32.878906 23.835938 " clip-rule="nonzero"/></clipPath><clipPath id="8e31cafaf5"><rect x="0" width="91" y="0" height="107"/></clipPath><clipPath id="8f35321418"><path d="M 491.824219 362.679688 L 524.375 362.679688 L 524.375 468.695312 L 491.824219 468.695312 Z M 491.824219 362.679688 " clip-rule="nonzero"/></clipPath><clipPath id="677a4d87fc"><path d="M 0.824219 0.679688 L 33.375 0.679688 L 33.375 106.695312 L 0.824219 106.695312 Z M 0.824219 0.679688 " clip-rule="nonzero"/></clipPath><clipPath id="b62b3367f8"><rect x="0" width="34" y="0" height="107"/></clipPath><clipPath id="3368dab6ca"><path d="M 539 360 L 638.949219 360 L 638.949219 470.84375 L 539 470.84375 Z M 539 360 " clip-rule="nonzero"/></clipPath><clipPath id="1f8db3c757"><path d="M 539.507812 459.144531 L 550.1875 437.027344 C 560.375 443.25 574.835938 447.492188 588.140625 447.492188 C 601.625 447.492188 606.871094 444.015625 606.871094 438.859375 C 606.871094 422.046875 541.460938 434.3125 541.460938 394.925781 C 541.460938 375.980469 558.210938 360.542969 592.410156 360.542969 C 607.359375 360.542969 622.828125 363.714844 634.144531 369.789062 L 624.109375 392.058594 C 613.09375 386.597656 602.234375 383.882812 592.226562 383.882812 C 578.589844 383.882812 573.648438 388.121094 573.648438 393.429688 C 573.648438 409.632812 638.875 397.519531 638.875 436.601562 C 638.875 455.089844 622.125 470.832031 587.925781 470.832031 C 569.042969 470.832031 550.277344 466.132812 539.449219 459.175781 " clip-rule="nonzero"/></clipPath><clipPath id="018a66fccc"><path d="M 0.28125 0.480469 L 99.878906 0.480469 L 99.878906 110.84375 L 0.28125 110.84375 Z M 0.28125 0.480469 " clip-rule="nonzero"/></clipPath><clipPath id="5d1eeeaf1c"><path d="M 0.507812 99.144531 L 11.1875 77.027344 C 21.375 83.25 35.835938 87.492188 49.140625 87.492188 C 62.625 87.492188 67.871094 84.015625 67.871094 78.859375 C 67.871094 62.046875 2.460938 74.3125 2.460938 34.925781 C 2.460938 15.980469 19.210938 0.542969 53.410156 0.542969 C 68.359375 0.542969 83.828125 3.714844 95.144531 9.789062 L 85.109375 32.058594 C 74.09375 26.597656 63.234375 23.882812 53.226562 23.882812 C 39.589844 23.882812 34.648438 28.121094 34.648438 33.429688 C 34.648438 49.632812 99.875 37.519531 99.875 76.601562 C 99.875 95.089844 83.125 110.832031 48.925781 110.832031 C 30.042969 110.832031 11.277344 106.132812 0.449219 99.175781 " clip-rule="nonzero"/></clipPath><clipPath id="f12c7289af"><rect x="0" width="100" y="0" height="111"/></clipPath><clipPath id="84b2bc39c0"><path d="M 647.648438 360 L 760.75 360 L 760.75 470.84375 L 647.648438 470.84375 Z M 647.648438 360 " clip-rule="nonzero"/></clipPath><clipPath id="3500ca1fda"><path d="M 647.964844 415.671875 C 647.964844 383.425781 674.753906 360.542969 711.242188 360.542969 C 732.445312 360.542969 749.527344 367.652344 760.695312 380.527344 L 739.980469 397.792969 C 732.75 389.769531 723.871094 385.375 712.859375 385.375 C 693.972656 385.375 680.824219 397.488281 680.824219 415.671875 C 680.824219 433.855469 693.972656 445.964844 712.859375 445.964844 C 723.871094 445.964844 732.75 441.574219 739.980469 433.550781 L 760.695312 450.816406 C 749.527344 463.691406 732.445312 470.800781 711.242188 470.800781 C 674.753906 470.800781 647.964844 447.917969 647.964844 415.671875 " clip-rule="nonzero"/></clipPath><clipPath id="1bb01e9c13"><path d="M 0.761719 0.480469 L 113.75 0.480469 L 113.75 110.84375 L 0.761719 110.84375 Z M 0.761719 0.480469 " clip-rule="nonzero"/></clipPath><clipPath id="c5e0aee758"><path d="M 0.964844 55.671875 C 0.964844 23.425781 27.753906 0.542969 64.242188 0.542969 C 85.445312 0.542969 102.527344 7.652344 113.695312 20.527344 L 92.980469 37.792969 C 85.75 29.769531 76.871094 25.375 65.859375 25.375 C 46.972656 25.375 33.824219 37.488281 33.824219 55.671875 C 33.824219 73.855469 46.972656 85.964844 65.859375 85.964844 C 76.871094 85.964844 85.75 81.574219 92.980469 73.550781 L 113.695312 90.816406 C 102.527344 103.691406 85.445312 110.800781 64.242188 110.800781 C 27.753906 110.800781 0.964844 87.917969 0.964844 55.671875 " clip-rule="nonzero"/></clipPath><clipPath id="a18ff39136"><rect x="0" width="114" y="0" height="111"/></clipPath><clipPath id="c86719c39b"><path d="M 759 362.09375 L 893.429688 362.09375 L 893.429688 469 L 759 469 Z M 759 362.09375 " clip-rule="nonzero"/></clipPath><clipPath id="5a7d21bccf"><path d="M 840.75 425.984375 L 825.953125 392.058594 L 811.15625 425.984375 Z M 850.269531 448.101562 L 801.636719 448.101562 L 792.605469 468.695312 L 759.382812 468.695312 L 810.148438 362.679688 L 842.183594 362.679688 L 893.132812 468.695312 L 859.269531 468.695312 Z M 850.269531 448.101562 " clip-rule="nonzero"/></clipPath><clipPath id="53f4b05704"><path d="M 0.359375 0.640625 L 134.28125 0.640625 L 134.28125 106.71875 L 0.359375 106.71875 Z M 0.359375 0.640625 " clip-rule="nonzero"/></clipPath><clipPath id="1f775a7601"><path d="M 81.75 63.984375 L 66.953125 30.058594 L 52.15625 63.984375 Z M 91.269531 86.101562 L 42.636719 86.101562 L 33.605469 106.695312 L 0.382812 106.695312 L 51.148438 0.679688 L 83.183594 0.679688 L 134.132812 106.695312 L 100.269531 106.695312 Z M 91.269531 86.101562 " clip-rule="nonzero"/></clipPath><clipPath id="dcf6108cdb"><rect x="0" width="135" y="0" height="107"/></clipPath><clipPath id="2883ca19a7"><path d="M 902.375 362.679688 L 934.929688 362.679688 L 934.929688 444.898438 L 902.375 444.898438 Z M 902.375 444.898438 L 989.8125 444.898438 L 989.8125 468.695312 L 902.375 468.695312 Z M 902.375 444.898438 " clip-rule="nonzero"/></clipPath><clipPath id="07807b4cf8"><path d="M 0.375 0.679688 L 32.929688 0.679688 L 32.929688 82.898438 L 0.375 82.898438 Z M 0.375 82.898438 L 87.8125 82.898438 L 87.8125 106.695312 L 0.375 106.695312 Z M 0.375 82.898438 " clip-rule="nonzero"/></clipPath><clipPath id="6eef4307e3"><rect x="0" width="88" y="0" height="107"/></clipPath><clipPath id="10a38eb3ac"><path d="M 994 372 L 1051.117188 372 L 1051.117188 469.757812 L 994 469.757812 Z M 994 372 " clip-rule="nonzero"/></clipPath><clipPath id="b0d88b45eb"><path d="M 1051.105469 463.691406 C 1046.835938 467.476562 1039.9375 469.304688 1033.53125 469.304688 C 1018.398438 469.304688 1010.195312 461.128906 1010.195312 447.796875 L 1010.195312 396.144531 L 994.421875 396.144531 L 994.421875 389.617188 L 1010.195312 389.617188 L 1010.195312 372.351562 L 1018.398438 372.351562 L 1018.398438 389.617188 L 1045.675781 389.617188 L 1045.675781 396.144531 L 1018.398438 396.144531 L 1018.398438 447.035156 C 1018.398438 457.195312 1023.832031 462.777344 1034.355469 462.777344 C 1039.453125 462.777344 1044.210938 461.25 1047.65625 458.382812 Z M 1051.105469 463.691406 " clip-rule="nonzero"/></clipPath><clipPath id="63c5683b58"><path d="M 0.320312 0.238281 L 57.117188 0.238281 L 57.117188 97.441406 L 0.320312 97.441406 Z M 0.320312 0.238281 " clip-rule="nonzero"/></clipPath><clipPath id="c283e0f54f"><path d="M 57.105469 91.691406 C 52.835938 95.476562 45.9375 97.304688 39.53125 97.304688 C 24.398438 97.304688 16.195312 89.128906 16.195312 75.796875 L 16.195312 24.144531 L 0.421875 24.144531 L 0.421875 17.617188 L 16.195312 17.617188 L 16.195312 0.351562 L 24.398438 0.351562 L 24.398438 17.617188 L 51.675781 17.617188 L 51.675781 24.144531 L 24.398438 24.144531 L 24.398438 75.035156 C 24.398438 85.195312 29.832031 90.777344 40.355469 90.777344 C 45.453125 90.777344 50.210938 89.25 53.65625 86.382812 Z M 57.105469 91.691406 " clip-rule="nonzero"/></clipPath><clipPath id="93256b9059"><rect x="0" width="58" y="0" height="98"/></clipPath><clipPath id="aecb44a2c5"><path d="M 1061 389 L 1143.558594 389 L 1143.558594 469.757812 L 1061 469.757812 Z M 1061 389 " clip-rule="nonzero"/></clipPath><clipPath id="0bae1ccab6"><path d="M 1069.683594 425.070312 L 1135.429688 425.070312 C 1134.269531 407.953125 1120.816406 395.6875 1102.574219 395.6875 C 1084.328125 395.6875 1071.027344 407.800781 1069.714844 425.070312 M 1143.300781 430.988281 L 1069.5 430.988281 C 1070.324219 449.78125 1085.273438 462.503906 1105.808594 462.503906 C 1116.667969 462.503906 1126.675781 458.871094 1133.234375 451.457031 L 1137.992188 456.460938 C 1130.425781 464.941406 1118.589844 469.335938 1105.625 469.335938 C 1079.660156 469.335938 1061.417969 452.679688 1061.417969 429.1875 C 1061.417969 405.695312 1078.988281 389.039062 1102.511719 389.039062 C 1126.035156 389.039062 1143.425781 405.390625 1143.425781 428.882812 L 1143.269531 430.253906 " clip-rule="nonzero"/></clipPath><clipPath id="08d1ecd94b"><path d="M 0.28125 0 L 82.558594 0 L 82.558594 80.441406 L 0.28125 80.441406 Z M 0.28125 0 " clip-rule="nonzero"/></clipPath><clipPath id="6df0f58fbf"><path d="M 8.683594 36.070312 L 74.429688 36.070312 C 73.269531 18.953125 59.816406 6.6875 41.574219 6.6875 C 23.328125 6.6875 10.027344 18.800781 8.714844 36.070312 M 82.300781 41.988281 L 8.5 41.988281 C 9.324219 60.78125 24.273438 73.503906 44.808594 73.503906 C 55.667969 73.503906 65.675781 69.871094 72.234375 62.457031 L 76.992188 67.460938 C 69.425781 75.941406 57.589844 80.335938 44.625 80.335938 C 18.660156 80.335938 0.417969 63.679688 0.417969 40.1875 C 0.417969 16.695312 17.988281 0.0390625 41.511719 0.0390625 C 65.035156 0.0390625 82.425781 16.390625 82.425781 39.882812 L 82.269531 41.253906 " clip-rule="nonzero"/></clipPath><clipPath id="1194768217"><rect x="0" width="83" y="0" height="81"/></clipPath><clipPath id="812e92a2fa"><path d="M 1159 389 L 1235.996094 389 L 1235.996094 469.757812 L 1159 469.757812 Z M 1159 389 " clip-rule="nonzero"/></clipPath><clipPath id="ae818090b8"><path d="M 1159.5625 429.15625 C 1159.5625 405.511719 1177.808594 389.007812 1202.945312 389.007812 C 1216.582031 389.007812 1228.421875 393.859375 1235.5 403.558594 L 1229.425781 407.648438 C 1223.171875 399.625 1213.65625 395.839844 1202.976562 395.839844 C 1182.75 395.839844 1167.984375 409.171875 1167.984375 429.15625 C 1167.984375 449.140625 1182.78125 462.472656 1202.976562 462.472656 C 1213.65625 462.472656 1223.171875 458.6875 1229.425781 450.664062 L 1235.5 454.753906 C 1228.421875 464.300781 1216.582031 469.304688 1202.945312 469.304688 C 1177.808594 469.304688 1159.5625 452.648438 1159.5625 429.15625 " clip-rule="nonzero"/></clipPath><clipPath id="ef660ecb72"><path d="M 0.441406 0 L 76.519531 0 L 76.519531 80.441406 L 0.441406 80.441406 Z M 0.441406 0 " clip-rule="nonzero"/></clipPath><clipPath id="99136981bb"><path d="M 0.5625 40.15625 C 0.5625 16.511719 18.808594 0.0078125 43.945312 0.0078125 C 57.582031 0.0078125 69.421875 4.859375 76.5 14.558594 L 70.425781 18.648438 C 64.171875 10.625 54.65625 6.839844 43.976562 6.839844 C 23.75 6.839844 8.984375 20.171875 8.984375 40.15625 C 8.984375 60.140625 23.78125 73.472656 43.976562 73.472656 C 54.65625 73.472656 64.171875 69.6875 70.425781 61.664062 L 76.5 65.753906 C 69.421875 75.300781 57.582031 80.304688 43.945312 80.304688 C 18.808594 80.304688 0.5625 63.648438 0.5625 40.15625 " clip-rule="nonzero"/></clipPath><clipPath id="f96ef67b87"><rect x="0" width="77" y="0" height="81"/></clipPath><clipPath id="2b21496d9a"><path d="M 1258 356 L 1336 356 L 1336 469 L 1258 469 Z M 1258 356 " clip-rule="nonzero"/></clipPath><clipPath id="fe50dcec80"><path d="M 1335.414062 422.503906 L 1335.414062 468.695312 L 1327.207031 468.695312 L 1327.207031 423.117188 C 1327.207031 405.238281 1316.863281 395.839844 1299.445312 395.839844 C 1279.21875 395.839844 1266.890625 407.800781 1266.890625 426.59375 L 1266.890625 468.695312 L 1258.683594 468.695312 L 1258.683594 356.300781 L 1266.890625 356.300781 L 1266.890625 406.152344 C 1272.808594 395.382812 1284.648438 389.039062 1300.574219 389.039062 C 1321.441406 389.039062 1335.414062 400.386719 1335.414062 422.503906 " clip-rule="nonzero"/></clipPath><clipPath id="b5089aaffa"><path d="M 0.558594 0.160156 L 77.601562 0.160156 L 77.601562 112.71875 L 0.558594 112.71875 Z M 0.558594 0.160156 " clip-rule="nonzero"/></clipPath><clipPath id="ee0aa310ef"><path d="M 77.414062 66.503906 L 77.414062 112.695312 L 69.207031 112.695312 L 69.207031 67.117188 C 69.207031 49.238281 58.863281 39.839844 41.445312 39.839844 C 21.21875 39.839844 8.890625 51.800781 8.890625 70.59375 L 8.890625 112.695312 L 0.683594 112.695312 L 0.683594 0.300781 L 8.890625 0.300781 L 8.890625 50.152344 C 14.808594 39.382812 26.648438 33.039062 42.574219 33.039062 C 63.441406 33.039062 77.414062 44.386719 77.414062 66.503906 " clip-rule="nonzero"/></clipPath><clipPath id="bba3c85905"><rect x="0" width="78" y="0" height="113"/></clipPath><clipPath id="d00ffb419b"><path d="M 1026.355469 530 L 1074.394531 530 L 1074.394531 585.734375 L 1026.355469 585.734375 Z M 1026.355469 530 " clip-rule="nonzero"/></clipPath><clipPath id="97aeb55f15"><path d="M 1044.367188 582.425781 C 1059.988281 582.425781 1070.453125 573.792969 1070.453125 557.835938 C 1070.453125 541.972656 1059.957031 533.246094 1044.367188 533.246094 L 1030.089844 533.246094 L 1030.089844 582.425781 Z M 1026.492188 530.101562 L 1044.949219 530.101562 C 1062.398438 530.101562 1074.238281 540.261719 1074.238281 557.835938 C 1074.238281 575.5 1062.398438 585.566406 1044.949219 585.566406 L 1026.492188 585.566406 Z M 1026.492188 530.101562 " clip-rule="nonzero"/></clipPath><clipPath id="b8954cbc01"><path d="M 0.480469 0 L 48.238281 0 L 48.238281 55.601562 L 0.480469 55.601562 Z M 0.480469 0 " clip-rule="nonzero"/></clipPath><clipPath id="0858db84d7"><path d="M 18.367188 52.425781 C 33.988281 52.425781 44.453125 43.792969 44.453125 27.835938 C 44.453125 11.972656 33.957031 3.246094 18.367188 3.246094 L 4.089844 3.246094 L 4.089844 52.425781 Z M 0.492188 0.101562 L 18.949219 0.101562 C 36.398438 0.101562 48.238281 10.261719 48.238281 27.835938 C 48.238281 45.5 36.398438 55.566406 18.949219 55.566406 L 0.492188 55.566406 Z M 0.492188 0.101562 " clip-rule="nonzero"/></clipPath><clipPath id="9e6d95d894"><rect x="0" width="49" y="0" height="56"/></clipPath><clipPath id="fe2f99b0e5"><path d="M 1080.777344 530 L 1128.820312 530 L 1128.820312 585.734375 L 1080.777344 585.734375 Z M 1080.777344 530 " clip-rule="nonzero"/></clipPath><clipPath id="7a30857f0a"><path d="M 1104.625 534.070312 C 1104.625 534.070312 1103.371094 538.339844 1102.457031 540.71875 L 1093.488281 563.234375 L 1115.882812 563.234375 L 1106.972656 540.71875 C 1106.058594 538.339844 1104.777344 534.070312 1104.777344 534.070312 Z M 1117.132812 566.40625 L 1092.207031 566.40625 L 1084.640625 585.597656 L 1080.796875 585.597656 L 1102.761719 530.101562 L 1106.636719 530.101562 L 1128.632812 585.597656 L 1124.757812 585.597656 Z M 1117.132812 566.40625 " clip-rule="nonzero"/></clipPath><clipPath id="36fdeec1a9"><path d="M 0.777344 0 L 48.71875 0 L 48.71875 55.601562 L 0.777344 55.601562 Z M 0.777344 0 " clip-rule="nonzero"/></clipPath><clipPath id="7ae4da92d5"><path d="M 24.625 4.070312 C 24.625 4.070312 23.371094 8.339844 22.457031 10.71875 L 13.488281 33.234375 L 35.882812 33.234375 L 26.972656 10.71875 C 26.058594 8.339844 24.777344 4.070312 24.777344 4.070312 Z M 37.132812 36.40625 L 12.207031 36.40625 L 4.640625 55.597656 L 0.796875 55.597656 L 22.761719 0.101562 L 26.636719 0.101562 L 48.632812 55.597656 L 44.757812 55.597656 Z M 37.132812 36.40625 " clip-rule="nonzero"/></clipPath><clipPath id="327c83eb4a"><rect x="0" width="49" y="0" height="56"/></clipPath><clipPath id="3edb071ac5"><path d="M 1154.6875 530 L 1202.730469 530 L 1202.730469 585.734375 L 1154.6875 585.734375 Z M 1154.6875 530 " clip-rule="nonzero"/></clipPath><clipPath id="e6571caf69"><path d="M 1154.777344 530.101562 L 1158.652344 530.101562 L 1176.347656 574.980469 C 1177.355469 577.605469 1178.605469 581.632812 1178.605469 581.632812 L 1178.789062 581.632812 C 1178.789062 581.632812 1180.039062 577.574219 1181.046875 574.980469 L 1198.832031 530.101562 L 1202.707031 530.101562 L 1180.710938 585.597656 L 1176.777344 585.597656 Z M 1154.777344 530.101562 " clip-rule="nonzero"/></clipPath><clipPath id="6c6d955a25"><path d="M 0.6875 0 L 48.730469 0 L 48.730469 55.601562 L 0.6875 55.601562 Z M 0.6875 0 " clip-rule="nonzero"/></clipPath><clipPath id="27975c7566"><path d="M 0.777344 0.101562 L 4.652344 0.101562 L 22.347656 44.980469 C 23.355469 47.605469 24.605469 51.632812 24.605469 51.632812 L 24.789062 51.632812 C 24.789062 51.632812 26.039062 47.574219 27.046875 44.980469 L 44.832031 0.101562 L 48.707031 0.101562 L 26.710938 55.597656 L 22.777344 55.597656 Z M 0.777344 0.101562 " clip-rule="nonzero"/></clipPath><clipPath id="5768269a53"><rect x="0" width="49" y="0" height="56"/></clipPath><clipPath id="0e52a66440"><path d="M 1213.203125 530.101562 L 1216.804688 530.101562 L 1216.804688 585.597656 L 1213.203125 585.597656 Z M 1213.203125 530.101562 " clip-rule="nonzero"/></clipPath><clipPath id="9557c7c259"><path d="M 0.203125 0.101562 L 3.804688 0.101562 L 3.804688 55.597656 L 0.203125 55.597656 Z M 0.203125 0.101562 " clip-rule="nonzero"/></clipPath><clipPath id="61db82d56c"><rect x="0" width="4" y="0" height="56"/></clipPath><clipPath id="e69d13157d"><path d="M 1234.644531 530 L 1282.683594 530 L 1282.683594 585.734375 L 1234.644531 585.734375 Z M 1234.644531 530 " clip-rule="nonzero"/></clipPath><clipPath id="723e65c4e5"><path d="M 1252.804688 582.425781 C 1268.421875 582.425781 1278.886719 573.792969 1278.886719 557.835938 C 1278.886719 541.972656 1268.394531 533.246094 1252.804688 533.246094 L 1238.523438 533.246094 L 1238.523438 582.425781 Z M 1234.925781 530.101562 L 1253.382812 530.101562 C 1270.832031 530.101562 1282.671875 540.261719 1282.671875 557.835938 C 1282.671875 575.5 1270.832031 585.566406 1253.382812 585.566406 L 1234.925781 585.566406 Z M 1234.925781 530.101562 " clip-rule="nonzero"/></clipPath><clipPath id="d110f8be73"><path d="M 0.800781 0 L 48.683594 0 L 48.683594 55.601562 L 0.800781 55.601562 Z M 0.800781 0 " clip-rule="nonzero"/></clipPath><clipPath id="18f9596ac8"><path d="M 18.804688 52.425781 C 34.421875 52.425781 44.886719 43.792969 44.886719 27.835938 C 44.886719 11.972656 34.394531 3.246094 18.804688 3.246094 L 4.523438 3.246094 L 4.523438 52.425781 Z M 0.925781 0.101562 L 19.382812 0.101562 C 36.832031 0.101562 48.671875 10.261719 48.671875 27.835938 C 48.671875 45.5 36.832031 55.566406 19.382812 55.566406 L 0.925781 55.566406 Z M 0.925781 0.101562 " clip-rule="nonzero"/></clipPath><clipPath id="7f25a47827"><rect x="0" width="49" y="0" height="56"/></clipPath><clipPath id="e3f2861b30"><path d="M 1289.066406 530 L 1337.109375 530 L 1337.109375 585.734375 L 1289.066406 585.734375 Z M 1289.066406 530 " clip-rule="nonzero"/></clipPath><clipPath id="4b7b80d5f6"><path d="M 1313.027344 534.070312 C 1313.027344 534.070312 1311.777344 538.339844 1310.859375 540.71875 L 1301.890625 563.234375 L 1324.285156 563.234375 L 1315.375 540.71875 C 1314.460938 538.339844 1313.179688 534.070312 1313.179688 534.070312 Z M 1325.535156 566.40625 L 1300.609375 566.40625 L 1293.042969 585.597656 L 1289.199219 585.597656 L 1311.195312 530.101562 L 1315.070312 530.101562 L 1337.066406 585.597656 L 1333.191406 585.597656 Z M 1325.535156 566.40625 " clip-rule="nonzero"/></clipPath><clipPath id="f114bc1714"><path d="M 0.0664062 0 L 48.109375 0 L 48.109375 55.601562 L 0.0664062 55.601562 Z M 0.0664062 0 " clip-rule="nonzero"/></clipPath><clipPath id="b5190981dd"><path d="M 24.027344 4.070312 C 24.027344 4.070312 22.777344 8.339844 21.859375 10.71875 L 12.890625 33.234375 L 35.285156 33.234375 L 26.375 10.71875 C 25.460938 8.339844 24.179688 4.070312 24.179688 4.070312 Z M 36.535156 36.40625 L 11.609375 36.40625 L 4.042969 55.597656 L 0.199219 55.597656 L 22.195312 0.101562 L 26.070312 0.101562 L 48.066406 55.597656 L 44.191406 55.597656 Z M 36.535156 36.40625 " clip-rule="nonzero"/></clipPath><clipPath id="d28cf9d13f"><rect x="0" width="49" y="0" height="56"/></clipPath></defs><rect x="-144" width="1728" fill="#ffffff" y="-80.999999" height="971.999992" fill-opacity="1"/><g clip-path="url(#4fe63fcac5)"><g transform="matrix(1, 0, 0, 1, 102, 530)"><g clip-path="url(#eee504ee11)"><g clip-path="url(#35da699cc2)"><rect x="-418.8" width="2073.6" fill="#231f20" height="1166.39999" y="-708.199998" fill-opacity="1"/></g></g></g></g><g clip-path="url(#74718a70d4)"><g transform="matrix(1, 0, 0, 1, 159, 530)"><g clip-path="url(#e078561beb)"><g clip-path="url(#af3a21104e)"><rect x="-475.8" width="2073.6" fill="#231f20" height="1166.39999" y="-708.199998" fill-opacity="1"/></g></g></g></g><g clip-path="url(#76c65b3c14)"><g clip-path="url(#a33bd4acdd)"><g transform="matrix(1, 0, 0, 1, 202, 529)"><g clip-path="url(#41321c8e76)"><g clip-path="url(#c87cd72039)"><g clip-path="url(#2e15a4830b)"><rect x="-518.8" width="2073.6" fill="#231f20" height="1166.39999" y="-707.199998" fill-opacity="1"/></g></g></g></g></g></g><g clip-path="url(#6ffa05f267)"><g clip-path="url(#8a5431f695)"><g transform="matrix(1, 0, 0, 1, 268, 530)"><g clip-path="url(#6a3cfb4210)"><g clip-path="url(#0fbc69e613)"><g clip-path="url(#834c075569)"><rect x="-584.8" width="2073.6" fill="#231f20" height="1166.39999" y="-708.199998" fill-opacity="1"/></g></g></g></g></g></g><g clip-path="url(#190bffcbf3)"><g clip-path="url(#de15f9e3c0)"><g transform="matrix(1, 0, 0, 1, 327, 529)"><g clip-path="url(#69afb35136)"><g clip-path="url(#d60d5b3b29)"><g clip-path="url(#d54b381cd3)"><rect x="-643.8" width="2073.6" fill="#231f20" height="1166.39999" y="-707.199998" fill-opacity="1"/></g></g></g></g></g></g><g clip-path="url(#cdea5bd5c1)"><g transform="matrix(1, 0, 0, 1, 400, 530)"><g clip-path="url(#97f01e3b8f)"><g clip-path="url(#1b5ffaa0c8)"><rect x="-716.8" width="2073.6" fill="#231f20" height="1166.39999" y="-708.199998" fill-opacity="1"/></g></g></g></g><g clip-path="url(#19c70bceb8)"><g clip-path="url(#435fdf535a)"><g transform="matrix(1, 0, 0, 1, 436, 529)"><g clip-path="url(#d5ca2f2af1)"><g clip-path="url(#3acc444582)"><g clip-path="url(#269b8d3efc)"><rect x="-752.8" width="2073.6" fill="#231f20" height="1166.39999" y="-707.199998" fill-opacity="1"/></g></g></g></g></g></g><g clip-path="url(#ae5a3aa0e9)"><g clip-path="url(#1bb45b3157)"><g transform="matrix(1, 0, 0, 1, 505, 529)"><g clip-path="url(#9531f3e5f7)"><g clip-path="url(#4975e2e95e)"><g clip-path="url(#94a145307b)"><rect x="-821.8" width="2073.6" fill="#231f20" height="1166.39999" y="-707.199998" fill-opacity="1"/></g></g></g></g></g></g><g clip-path="url(#d1d122e45f)"><g transform="matrix(1, 0, 0, 1, 573, 530)"><g clip-path="url(#dfe2a21627)"><g clip-path="url(#623b1449ce)"><rect x="-889.8" width="2073.6" fill="#231f20" height="1166.39999" y="-708.199998" fill-opacity="1"/></g></g></g></g><g clip-path="url(#8411976104)"><g clip-path="url(#e6ad229a1b)"><g transform="matrix(1, 0, 0, 1, 587, 530)"><g clip-path="url(#6dddb19d2e)"><g clip-path="url(#db743b525b)"><g clip-path="url(#0863baf27e)"><rect x="-903.8" width="2073.6" fill="#231f20" height="1166.39999" y="-708.199998" fill-opacity="1"/></g></g></g></g></g></g><g clip-path="url(#0788d34f80)"><g clip-path="url(#9fa34adb51)"><g transform="matrix(1, 0, 0, 1, 661, 530)"><g clip-path="url(#2926c9f8c3)"><g clip-path="url(#a167efb02d)"><g clip-path="url(#cb17b3be1f)"><rect x="-977.8" width="2073.6" fill="#231f20" height="1166.39999" y="-708.199998" fill-opacity="1"/></g></g></g></g></g></g><g clip-path="url(#db1ae24d2a)"><g transform="matrix(1, 0, 0, 1, 743, 530)"><g clip-path="url(#868908bf22)"><g clip-path="url(#6e27878f61)"><rect x="-1059.8" width="2073.6" fill="#231f20" height="1166.39999" y="-708.199998" fill-opacity="1"/></g></g></g></g><g clip-path="url(#df83674f9a)"><g clip-path="url(#ff2004d8f5)"><g transform="matrix(1, 0, 0, 1, 775, 530)"><g clip-path="url(#5fddad0d2e)"><g clip-path="url(#ff8c6a03ff)"><g clip-path="url(#23c000a8a5)"><rect x="-1091.8" width="2073.6" fill="#231f20" height="1166.39999" y="-708.199998" fill-opacity="1"/></g></g></g></g></g></g><g clip-path="url(#244524db87)"><g clip-path="url(#5ba7a98d37)"><g transform="matrix(1, 0, 0, 1, 823, 530)"><g clip-path="url(#10f86d381c)"><g clip-path="url(#418b460541)"><g clip-path="url(#dd2af62587)"><rect x="-1139.8" width="2073.6" fill="#231f20" height="1166.39999" y="-708.199998" fill-opacity="1"/></g></g></g></g></g></g><g clip-path="url(#d214090aa2)"><g clip-path="url(#2a628dda18)"><g transform="matrix(1, 0, 0, 1, 877, 529)"><g clip-path="url(#dee73f6d45)"><g clip-path="url(#b6312f95d0)"><g clip-path="url(#801a9ccc62)"><rect x="-1193.8" width="2073.6" fill="#231f20" height="1166.39999" y="-707.199998" fill-opacity="1"/></g></g></g></g></g></g><g clip-path="url(#1d73d8afaf)"><g clip-path="url(#86edbe2ff2)"><g transform="matrix(1, 0, 0, 1, 951, 530)"><g clip-path="url(#fb94c19526)"><g clip-path="url(#9107e70da8)"><g clip-path="url(#11a2a27fce)"><rect x="-1267.8" width="2073.6" fill="#231f20" height="1166.39999" y="-708.199998" fill-opacity="1"/></g></g></g></g></g></g><g clip-path="url(#fe9b7b6034)"><g clip-path="url(#b23ad0f068)"><g transform="matrix(1, 0, 0, 1, 101, 222)"><g clip-path="url(#a3f836268a)"><g clip-path="url(#cd2d2e9991)"><g clip-path="url(#926362cc22)"><rect x="-417.8" width="2073.6" fill="#231f20" height="1166.39999" y="-400.199998" fill-opacity="1"/></g></g></g></g></g></g><g clip-path="url(#9f02f8605f)"><g clip-path="url(#51e76f57f7)"><g transform="matrix(1, 0, 0, 1, 141, 261)"><g clip-path="url(#fa1b054cf4)"><g clip-path="url(#37ee16f645)"><g clip-path="url(#b8e446d557)"><rect x="-457.8" width="2073.6" fill="#00a3d2" height="1166.39999" y="-439.199998" fill-opacity="1"/></g></g></g></g></g></g><g clip-path="url(#f5a1368a65)"><g clip-path="url(#741e53bee1)"><g transform="matrix(1, 0, 0, 1, 386, 362)"><g clip-path="url(#8e31cafaf5)"><g clip-path="url(#3f129618e2)"><g clip-path="url(#e9fa48a771)"><rect x="-702.8" width="2073.6" fill="#231f20" height="1166.39999" y="-540.199998" fill-opacity="1"/></g></g></g></g></g></g><g clip-path="url(#8f35321418)"><g transform="matrix(1, 0, 0, 1, 491, 362)"><g clip-path="url(#b62b3367f8)"><g clip-path="url(#677a4d87fc)"><rect x="-807.8" width="2073.6" fill="#231f20" height="1166.39999" y="-540.199998" fill-opacity="1"/></g></g></g></g><g clip-path="url(#3368dab6ca)"><g clip-path="url(#1f8db3c757)"><g transform="matrix(1, 0, 0, 1, 539, 360)"><g clip-path="url(#f12c7289af)"><g clip-path="url(#018a66fccc)"><g clip-path="url(#5d1eeeaf1c)"><rect x="-855.8" width="2073.6" fill="#231f20" height="1166.39999" y="-538.199998" fill-opacity="1"/></g></g></g></g></g></g><g clip-path="url(#84b2bc39c0)"><g clip-path="url(#3500ca1fda)"><g transform="matrix(1, 0, 0, 1, 647, 360)"><g clip-path="url(#a18ff39136)"><g clip-path="url(#1bb01e9c13)"><g clip-path="url(#c5e0aee758)"><rect x="-963.8" width="2073.6" fill="#231f20" height="1166.39999" y="-538.199998" fill-opacity="1"/></g></g></g></g></g></g><g clip-path="url(#c86719c39b)"><g clip-path="url(#5a7d21bccf)"><g transform="matrix(1, 0, 0, 1, 759, 362)"><g clip-path="url(#dcf6108cdb)"><g clip-path="url(#53f4b05704)"><g clip-path="url(#1f775a7601)"><rect x="-1075.8" width="2073.6" fill="#231f20" height="1166.39999" y="-540.199998" fill-opacity="1"/></g></g></g></g></g></g><g clip-path="url(#2883ca19a7)"><g transform="matrix(1, 0, 0, 1, 902, 362)"><g clip-path="url(#6eef4307e3)"><g clip-path="url(#07807b4cf8)"><rect x="-1218.8" width="2073.6" fill="#231f20" height="1166.39999" y="-540.199998" fill-opacity="1"/></g></g></g></g><g clip-path="url(#10a38eb3ac)"><g clip-path="url(#b0d88b45eb)"><g transform="matrix(1, 0, 0, 1, 994, 372)"><g clip-path="url(#93256b9059)"><g clip-path="url(#63c5683b58)"><g clip-path="url(#c283e0f54f)"><rect x="-1310.8" width="2073.6" fill="#231f20" height="1166.39999" y="-550.199998" fill-opacity="1"/></g></g></g></g></g></g><g clip-path="url(#aecb44a2c5)"><g clip-path="url(#0bae1ccab6)"><g transform="matrix(1, 0, 0, 1, 1061, 389)"><g clip-path="url(#1194768217)"><g clip-path="url(#08d1ecd94b)"><g clip-path="url(#6df0f58fbf)"><rect x="-1377.8" width="2073.6" fill="#231f20" height="1166.39999" y="-567.199998" fill-opacity="1"/></g></g></g></g></g></g><g clip-path="url(#812e92a2fa)"><g clip-path="url(#ae818090b8)"><g transform="matrix(1, 0, 0, 1, 1159, 389)"><g clip-path="url(#f96ef67b87)"><g clip-path="url(#ef660ecb72)"><g clip-path="url(#99136981bb)"><rect x="-1475.8" width="2073.6" fill="#231f20" height="1166.39999" y="-567.199998" fill-opacity="1"/></g></g></g></g></g></g><g clip-path="url(#2b21496d9a)"><g clip-path="url(#fe50dcec80)"><g transform="matrix(1, 0, 0, 1, 1258, 356)"><g clip-path="url(#bba3c85905)"><g clip-path="url(#b5089aaffa)"><g clip-path="url(#ee0aa310ef)"><rect x="-1574.8" width="2073.6" fill="#231f20" height="1166.39999" y="-534.199998" fill-opacity="1"/></g></g></g></g></g></g><g clip-path="url(#d00ffb419b)"><g clip-path="url(#97aeb55f15)"><g transform="matrix(1, 0, 0, 1, 1026, 530)"><g clip-path="url(#9e6d95d894)"><g clip-path="url(#b8954cbc01)"><g clip-path="url(#0858db84d7)"><rect x="-1342.8" width="2073.6" fill="#231f20" height="1166.39999" y="-708.199998" fill-opacity="1"/></g></g></g></g></g></g><g clip-path="url(#fe2f99b0e5)"><g clip-path="url(#7a30857f0a)"><g transform="matrix(1, 0, 0, 1, 1080, 530)"><g clip-path="url(#327c83eb4a)"><g clip-path="url(#36fdeec1a9)"><g clip-path="url(#7ae4da92d5)"><rect x="-1396.8" width="2073.6" fill="#231f20" height="1166.39999" y="-708.199998" fill-opacity="1"/></g></g></g></g></g></g><g clip-path="url(#3edb071ac5)"><g clip-path="url(#e6571caf69)"><g transform="matrix(1, 0, 0, 1, 1154, 530)"><g clip-path="url(#5768269a53)"><g clip-path="url(#6c6d955a25)"><g clip-path="url(#27975c7566)"><rect x="-1470.8" width="2073.6" fill="#231f20" height="1166.39999" y="-708.199998" fill-opacity="1"/></g></g></g></g></g></g><g clip-path="url(#0e52a66440)"><g transform="matrix(1, 0, 0, 1, 1213, 530)"><g clip-path="url(#61db82d56c)"><g clip-path="url(#9557c7c259)"><rect x="-1529.8" width="2073.6" fill="#231f20" height="1166.39999" y="-708.199998" fill-opacity="1"/></g></g></g></g><g clip-path="url(#e69d13157d)"><g clip-path="url(#723e65c4e5)"><g transform="matrix(1, 0, 0, 1, 1234, 530)"><g clip-path="url(#7f25a47827)"><g clip-path="url(#d110f8be73)"><g clip-path="url(#18f9596ac8)"><rect x="-1550.8" width="2073.6" fill="#231f20" height="1166.39999" y="-708.199998" fill-opacity="1"/></g></g></g></g></g></g><g clip-path="url(#e3f2861b30)"><g clip-path="url(#4b7b80d5f6)"><g transform="matrix(1, 0, 0, 1, 1289, 530)"><g clip-path="url(#d28cf9d13f)"><g clip-path="url(#f114bc1714)"><g clip-path="url(#b5190981dd)"><rect x="-1605.8" width="2073.6" fill="#231f20" height="1166.39999" y="-708.199998" fill-opacity="1"/></g></g></g></g></g></g></svg>